<?xml version="1.0" standalone="no"?>
<!DOCTYPE svg PUBLIC "-//W3C//DTD SVG 20010904//EN"
 "http://www.w3.org/TR/2001/REC-SVG-20010904/DTD/svg10.dtd">
<svg version="1.0" xmlns="http://www.w3.org/2000/svg"
 width="365.000000pt" height="365.000000pt" viewBox="0 0 365.000000 365.000000"
 preserveAspectRatio="xMidYMid meet">
<metadata>
Created by potrace 1.11, written by Peter Selinger 2001-2013
</metadata>
<g transform="translate(0.000000,365.000000) scale(0.100000,-0.100000)"
fill="#000000" stroke="none">
<path d="M126 3232 c-5 -9 156 -286 182 -311 8 -9 20 -16 26 -16 17 -1 76 -29
76 -37 0 -3 -16 -5 -35 -4 -39 4 -39 3 -25 -24 11 -21 43 -21 163 1 71 13 80
24 47 54 -11 10 -20 26 -20 35 0 9 -15 37 -33 61 -18 24 -38 58 -46 74 -7 17
-33 63 -57 103 l-45 72 -114 0 c-63 0 -116 -4 -119 -8z m355 -312 c23 0 34
-19 20 -33 -13 -13 -51 -17 -51 -5 0 4 -6 8 -14 8 -11 0 -12 5 -3 24 8 16 16
21 22 15 5 -5 17 -9 26 -9z"/>
<path d="M1166 3193 c-19 -27 -48 -73 -64 -104 -16 -31 -43 -77 -61 -102 -17
-25 -31 -52 -31 -60 0 -8 -9 -22 -20 -32 -12 -10 -18 -25 -16 -32 3 -7 2 -13
-3 -13 -13 0 -45 -53 -44 -73 1 -9 -2 -15 -7 -12 -5 3 -34 -36 -64 -88 -47
-78 -56 -101 -56 -141 0 -43 -2 -47 -22 -44 -20 3 -24 11 -28 55 -6 62 -95
226 -119 218 -9 -4 -11 0 -7 11 8 20 -10 44 -34 44 -9 0 -31 -7 -49 -16 -18
-9 -59 -17 -91 -17 -33 -1 -60 -3 -60 -5 0 -2 61 -105 136 -229 74 -124 133
-231 130 -237 -3 -6 -34 -56 -69 -111 l-64 -100 -79 0 -79 0 -3 310 c-2 261
-5 311 -17 318 -8 4 -15 15 -15 24 0 9 -3 13 -7 10 -3 -4 -12 -2 -19 4 -8 7
-14 7 -19 -1 -3 -5 -22 -10 -41 -10 -19 0 -34 -4 -34 -10 0 -5 9 -10 19 -10
18 0 37 -27 26 -38 -3 -3 -5 0 -5 6 0 17 -63 41 -94 35 -15 -3 -31 -14 -36
-24 -6 -11 -9 -134 -8 -316 l3 -298 83 -3 83 -3 -3 -42 -3 -41 -74 -28 c-112
-41 -121 -53 -121 -160 0 -86 0 -88 -24 -88 -26 0 -36 -16 -36 -59 0 -40 17
-51 79 -51 33 -1 64 -7 75 -15 34 -25 56 -19 56 15 0 29 24 90 36 90 2 0 -2
-13 -11 -30 -21 -40 -20 -129 2 -160 16 -22 19 -59 23 -295 l5 -270 120 0 120
0 5 275 c5 230 9 282 23 319 19 46 16 81 -10 136 -13 28 -13 28 2 10 25 -31
35 -86 29 -151 -5 -42 -3 -64 5 -69 9 -5 9 -10 1 -20 -6 -8 -10 -29 -8 -47 3
-30 6 -33 41 -36 21 -2 45 2 53 9 10 8 14 8 14 0 0 -6 18 -11 45 -11 57 0 106
-20 127 -52 9 -14 26 -81 38 -149 12 -68 32 -144 44 -169 18 -38 26 -45 54
-48 22 -2 34 2 38 12 3 9 15 16 25 16 10 0 19 6 19 14 0 8 14 19 31 25 23 8
30 8 26 -2 -2 -6 -11 -11 -21 -9 -14 3 -21 -9 -17 -31 0 -4 -6 -7 -14 -7 -8 0
-15 -4 -15 -10 0 -5 16 -10 35 -10 24 0 35 5 35 14 0 8 4 17 9 20 5 4 7 -3 4
-14 -4 -17 0 -20 25 -20 38 0 55 19 38 43 -7 9 -18 17 -23 17 -6 0 -8 11 -6
24 3 16 -2 31 -16 45 -12 12 -16 21 -10 21 11 0 9 20 -7 103 -4 19 -11 27 -20
23 -7 -3 -18 3 -24 14 -14 26 -13 30 10 30 13 0 20 7 20 19 0 33 -18 69 -37
74 -17 4 -17 5 0 6 16 1 17 3 1 34 -22 43 -54 77 -84 89 l-25 9 37 18 c21 9
48 27 61 39 23 22 26 22 312 20 l289 -3 66 -180 c36 -99 88 -240 114 -312 l49
-133 38 0 39 0 0 230 0 229 -30 83 c-16 45 -30 83 -30 85 0 2 41 3 91 3 104 0
99 13 48 -120 -28 -71 -29 -82 -29 -243 0 -140 2 -169 15 -173 20 -8 19 -34
-1 -34 -11 0 -14 -8 -12 -28 3 -24 8 -27 44 -30 l41 -3 42 113 c23 62 74 203
114 313 l72 200 43 3 c35 3 42 7 43 25 2 73 64 148 136 166 25 7 47 10 50 8 2
-3 -16 -9 -41 -16 -58 -14 -101 -51 -121 -106 -20 -50 -15 -93 15 -143 33 -53
75 -73 148 -70 54 2 65 0 74 -16 9 -16 8 -18 -6 -13 -12 5 -19 -1 -26 -19 -14
-37 -12 -51 4 -28 8 10 18 16 21 12 4 -4 0 -14 -9 -23 -9 -9 -16 -22 -16 -28
0 -8 -3 -7 -9 2 -6 10 -12 4 -21 -23 -6 -19 -9 -40 -6 -45 4 -5 1 -11 -5 -13
-9 -3 -48 -98 -49 -120 0 -5 8 -8 17 -8 15 0 15 -1 1 -13 -13 -9 -16 -28 -15
-82 l2 -70 95 -1 c121 -2 137 4 146 53 4 21 24 90 44 153 20 63 57 184 81 268
l43 152 67 0 66 0 25 -82 24 -83 -95 -5 -95 -5 -23 -73 c-12 -41 -25 -87 -28
-103 l-6 -28 158 -3 158 -3 36 -120 36 -120 141 -3 c117 -2 142 0 142 12 0 7
-51 158 -114 335 -95 271 -110 321 -95 321 39 0 49 11 49 55 0 26 -6 47 -15
55 -13 10 -15 51 -15 251 l0 238 30 47 c46 73 52 124 48 426 l-3 273 -34 73
c-40 86 -88 131 -170 164 -47 18 -82 22 -219 26 l-163 4 3 -103 3 -104 100 0
c122 -1 168 -19 202 -80 22 -38 23 -51 23 -253 l0 -212 -182 2 -183 3 -3 33
c-4 36 -9 39 -27 15 -11 -15 -14 -14 -33 5 l-22 22 23 -3 c14 -1 25 6 32 21 5
12 13 22 17 22 11 0 9 593 -2 610 -7 12 -33 15 -127 15 l-118 0 -3 -30 c-3
-19 2 -33 15 -43 17 -12 17 -14 1 -23 -16 -9 -18 -28 -18 -159 0 -110 3 -150
12 -150 9 0 9 -3 0 -12 -15 -15 -17 -228 -2 -228 6 0 10 4 10 8 0 5 6 16 13
25 10 15 12 13 11 -15 -1 -23 -7 -34 -22 -39 -17 -6 -22 -17 -22 -44 l0 -35
-94 0 -95 0 -19 53 c-10 28 -68 192 -127 362 -60 171 -113 316 -118 323 -7 9
-45 12 -151 10 l-140 -3 -28 -75 c-90 -240 -197 -574 -188 -585 8 -9 5 -14 -9
-18 -11 -3 -22 -17 -26 -36 l-7 -31 -84 0 -84 0 -2 331 -3 331 -68 -118 c-37
-66 -92 -159 -122 -208 l-55 -89 0 -123 0 -124 -90 0 c-49 0 -90 4 -90 9 0 10
122 217 141 239 12 15 79 132 79 139 0 2 -5 1 -12 -3 -16 -10 -58 -11 -58 -2
0 4 11 8 25 8 14 0 38 12 54 28 29 27 201 303 201 322 0 6 -44 10 -115 10
l-115 0 -34 -47z m1504 -23 c0 -5 -4 -10 -9 -10 -6 0 -13 5 -16 10 -3 6 1 10
9 10 9 0 16 -4 16 -10z m-10 -100 c0 -5 -2 -10 -4 -10 -3 0 -8 5 -11 10 -3 6
-1 10 4 10 6 0 11 -4 11 -10z m60 -40 c0 -5 -7 -10 -15 -10 -8 0 -15 5 -15 10
0 6 7 10 15 10 8 0 15 -4 15 -10z m-26 -72 c-17 -18 -20 -17 -54 10 -3 3 6 1
19 -3 22 -7 23 -5 17 21 -7 28 -7 28 13 10 20 -18 20 -20 5 -38z m-1534 28 c0
-3 -4 -8 -10 -11 -5 -3 -10 -1 -10 4 0 6 5 11 10 11 6 0 10 -2 10 -4z m911
-269 c22 -76 42 -144 46 -152 4 -13 -11 -15 -91 -15 l-97 0 -10 -30 c-7 -20
-18 -30 -31 -30 -12 0 -18 5 -16 13 3 6 31 107 63 222 32 116 60 217 63 225 2
8 11 -10 19 -40 7 -30 32 -117 54 -193z m-977 188 c25 -19 12 -35 -22 -26 -31
9 -44 41 -15 41 10 0 26 -7 37 -15z m1606 -36 c0 -6 -4 -7 -10 -4 -5 3 -10 11
-10 16 0 6 5 7 10 4 6 -3 10 -11 10 -16z m-1617 -36 c-7 -2 -19 -2 -25 0 -7 3
-2 5 12 5 14 0 19 -2 13 -5z m50 -10 c-7 -2 -19 -2 -25 0 -7 3 -2 5 12 5 14 0
19 -2 13 -5z m-823 -93 c0 -5 -4 -10 -10 -10 -5 0 -10 5 -10 10 0 6 5 10 10
10 6 0 10 -4 10 -10z m340 -30 c0 -5 -5 -10 -11 -10 -5 0 -7 5 -4 10 3 6 8 10
11 10 2 0 4 -4 4 -10z m-460 -30 c0 -5 -4 -10 -9 -10 -6 0 -13 5 -16 10 -3 6
1 10 9 10 9 0 16 -4 16 -10z m80 -5 c0 -2 -9 -9 -20 -15 -12 -6 -20 -7 -20 -1
0 5 8 12 18 14 9 3 18 5 20 6 1 0 2 -1 2 -4z m1423 -15 c-5 -19 -23 -29 -23
-12 0 7 20 32 26 32 1 0 0 -9 -3 -20z m1087 0 c0 -5 -4 -10 -10 -10 -5 0 -10
5 -10 10 0 6 5 10 10 10 6 0 10 -4 10 -10z m-15 -60 c-3 -5 -10 -10 -16 -10
-5 0 -9 5 -9 10 0 6 7 10 16 10 8 0 12 -4 9 -10z m-1130 -80 c-3 -5 -11 -10
-16 -10 -6 0 -7 5 -4 10 3 6 11 10 16 10 6 0 7 -4 4 -10z m120 -1 c11 -17 -1
-21 -15 -4 -8 9 -8 15 -2 15 6 0 14 -5 17 -11z m941 -16 c-7 -7 -26 7 -26 19
0 6 6 6 15 -2 9 -7 13 -15 11 -17z m-1896 -38 c0 -20 -5 -25 -25 -25 -20 0
-25 5 -25 25 0 20 5 25 25 25 20 0 25 -5 25 -25z m380 0 l0 -25 -110 0 c-60 0
-110 3 -110 6 0 3 5 14 10 25 10 17 22 19 110 19 100 0 100 0 100 -25z m410
19 c0 -3 -5 -14 -10 -25 -9 -16 -22 -19 -79 -19 -75 0 -81 3 -74 31 5 17 15
19 84 19 44 0 79 -3 79 -6z m30 -4 c0 -5 -2 -10 -4 -10 -3 0 -8 5 -11 10 -3 6
-1 10 4 10 6 0 11 -4 11 -10z m281 -12 c-4 -13 -18 -25 -31 -26 -18 -3 -21 0
-16 13 3 9 6 21 6 26 0 5 11 9 25 9 21 0 23 -3 16 -22z m699 -3 c0 -25 -1 -25
-84 -25 -84 0 -96 5 -96 41 0 5 41 9 90 9 89 0 90 0 90 -25z m630 0 l0 -25
-185 0 -185 0 0 25 0 25 185 0 185 0 0 -25z m-2430 -60 c0 -15 -6 -21 -20 -20
-25 2 -34 11 -27 27 8 23 47 17 47 -7z m380 -1 c0 -10 -14 -14 -53 -14 -29 0
-58 -5 -65 -12 -16 -16 -16 -220 0 -236 7 -7 34 -12 60 -12 71 0 58 -20 -14
-22 -35 -1 40 -5 166 -8 l228 -5 19 -50 c10 -27 19 -53 19 -57 0 -5 -94 -8
-210 -8 -195 0 -210 1 -219 19 -10 18 -49 46 -115 83 -17 10 -51 18 -76 19
-54 0 -33 12 45 26 l50 8 3 118 3 117 -28 11 c-15 5 -35 8 -45 6 -19 -5 -24
13 -9 29 6 5 61 8 125 6 93 -3 116 -6 116 -18z m383 1 c-8 -21 -133 -22 -133
0 0 10 16 15 63 17 73 4 78 2 70 -17z m320 12 c-2 -4 -3 -14 -3 -22 0 -17 -9
-19 -29 -6 -19 12 -7 40 16 37 10 -2 17 -6 16 -9z m1330 -12 c-4 -11 -23 -15
-77 -15 -77 0 -96 -9 -96 -47 0 -13 -4 -23 -10 -23 -5 0 -10 10 -10 23 0 37
-19 47 -92 47 -50 0 -68 4 -68 13 0 8 2 16 4 18 2 2 83 3 180 1 148 -2 174 -5
169 -17z m-613 0 c0 -11 -12 -15 -44 -15 -57 0 -76 -8 -76 -31 0 -26 -17 -24
-23 4 -2 12 -8 30 -12 40 -6 15 1 17 74 17 65 0 81 -3 81 -15z m95 -5 c3 -5
-1 -10 -9 -10 -9 0 -16 5 -16 10 0 6 4 10 9 10 6 0 13 -4 16 -10z m125 -30 c0
-5 -4 -10 -9 -10 -6 0 -13 5 -16 10 -3 6 1 10 9 10 9 0 16 -4 16 -10z m-2020
-85 c0 -47 3 -85 8 -85 4 0 29 39 55 86 l49 85 46 -3 47 -3 3 -104 c1 -57 -1
-108 -5 -112 -9 -8 -233 -43 -239 -37 -2 2 -7 61 -10 131 l-7 127 26 0 27 0 0
-85z m370 -31 l0 -115 -47 3 -48 3 -3 113 -3 112 51 0 50 0 0 -116z m368 84
c-5 -18 -12 -41 -15 -50 -4 -13 0 -18 13 -18 17 0 17 -1 -1 -13 -13 -11 -17
-22 -12 -44 3 -17 3 -40 0 -52 -5 -18 -12 -21 -62 -20 -31 0 -50 3 -43 6 8 3
12 36 12 114 l0 109 59 0 60 0 -11 -32z m327 -83 l0 -110 -47 -3 c-46 -3 -48
-2 -48 23 0 15 12 61 26 103 14 43 28 83 30 90 2 8 12 12 21 10 16 -3 18 -16
18 -113z m735 13 c1 -75 3 -98 11 -85 5 9 14 17 19 17 5 0 1 -14 -8 -30 -14
-26 -22 -30 -51 -28 -32 3 -36 7 -57 63 -13 34 -23 83 -23 113 l-1 52 55 0 55
0 0 -102z m400 77 c0 -23 -3 -25 -50 -25 l-49 0 0 -86 c0 -47 -2 -88 -5 -91
-3 -3 -12 -3 -21 0 -12 5 -15 26 -15 117 l0 110 70 0 c68 0 70 -1 70 -25z
m180 20 c0 -2 -15 -12 -32 -21 -18 -9 -35 -20 -38 -25 -3 -5 -16 -6 -28 -2
-15 3 -22 13 -22 29 0 23 3 24 60 24 33 0 60 -2 60 -5z m-1268 -122 l3 -108
120 0 120 0 3 108 c2 80 6 107 15 104 8 -2 13 -35 15 -97 3 -97 11 -120 43
-120 11 0 19 -4 19 -10 0 -6 -90 -10 -251 -10 -164 0 -248 3 -244 10 3 6 28
10 54 10 26 0 52 5 59 12 8 8 12 47 12 110 0 79 3 98 15 98 11 0 15 -21 17
-107z m236 5 l-3 -103 -110 0 -110 0 -3 103 -3 102 116 0 116 0 -3 -102z
m-1472 -24 c-9 -38 -18 -79 -21 -91 -4 -19 -12 -23 -41 -23 -22 0 -37 -6 -40
-15 -7 -17 -44 -20 -44 -4 0 7 30 60 68 120 54 87 69 105 80 95 11 -11 10 -25
-2 -82z m2334 72 c0 -3 -4 -8 -10 -11 -5 -3 -10 -1 -10 4 0 6 5 11 10 11 6 0
10 -2 10 -4z m-55 -16 c-4 -6 -1 -17 5 -25 9 -11 9 -15 1 -15 -6 0 -14 7 -17
15 -4 8 -13 15 -21 15 -8 0 -11 5 -8 10 3 6 15 10 26 10 12 0 17 -5 14 -10z
m145 -21 c0 -6 -4 -7 -10 -4 -5 3 -10 11 -10 16 0 6 5 7 10 4 6 -3 10 -11 10
-16z m-870 -54 c14 -58 11 -71 -15 -62 -11 5 -15 22 -15 67 0 73 12 71 30 -5z
m-1511 36 c8 -14 7 -20 -4 -25 -11 -4 -15 -20 -15 -56 0 -38 -4 -50 -15 -50
-18 0 -18 5 -3 86 12 67 20 77 37 45z m1056 10 c3 -5 1 -12 -4 -15 -5 -3 -11
1 -15 9 -6 16 9 21 19 6z m1033 -27 c-9 -9 -21 -13 -28 -9 -8 5 -4 11 12 19
29 16 37 10 16 -10z m-1133 -14 c-7 -12 12 -40 26 -40 5 0 6 6 3 14 -3 8 -1
17 5 20 9 6 9 -5 2 -58 0 -5 -8 -3 -16 4 -8 6 -24 9 -37 5 -20 -5 -21 -4 -5 5
9 6 15 16 11 21 -6 11 2 39 11 39 4 0 3 -5 0 -10z m1723 -222 l-3 -233 -27 -3
c-19 -2 -30 3 -38 19 -10 18 -70 186 -70 195 0 1 8 5 18 7 13 4 12 5 -5 6 -16
1 -25 12 -37 48 -23 66 -21 71 22 76 24 2 12 5 -33 7 -55 2 -64 4 -40 10 17 4
44 8 62 9 37 1 123 55 123 77 0 8 7 14 15 14 13 0 15 -30 13 -232z m-2650 169
c3 -42 1 -47 -17 -47 -18 0 -21 6 -21 51 0 43 3 50 18 47 13 -2 18 -15 20 -51z
m2007 13 c-3 -5 -11 -10 -16 -10 -6 0 -7 5 -4 10 3 6 11 10 16 10 6 0 7 -4 4
-10z m-1235 -50 c0 -5 -20 -10 -45 -10 -25 0 -45 5 -45 10 0 6 20 10 45 10 25
0 45 -4 45 -10z m1085 0 c4 -6 -6 -10 -24 -10 -16 0 -33 5 -36 10 -4 6 6 10
24 10 16 0 33 -4 36 -10z m295 0 c0 -5 -9 -10 -20 -10 -11 0 -20 5 -20 10 0 6
9 10 20 10 11 0 20 -4 20 -10z m-1234 -57 c-3 -4 -16 -1 -28 4 l-23 11 25 10
c19 7 26 6 28 -5 2 -8 1 -17 -2 -20z m618 15 c-4 -13 -12 -39 -19 -58 l-12
-35 -233 0 -233 0 -12 35 c-7 19 -15 45 -19 58 l-7 22 271 0 271 0 -7 -22z
m616 9 c0 -7 -7 -34 -16 -60 l-16 -47 -185 0 -185 0 6 23 c3 13 12 40 21 60
l15 37 180 0 c143 0 180 -3 180 -13z m-533 -23 c-9 -9 -28 6 -21 18 4 6 10 6
17 -1 6 -6 8 -13 4 -17z m-1667 -164 c98 -5 132 -10 160 -25 l35 -20 -110 -6
-110 -5 113 -2 c111 -2 113 -2 122 -28 26 -68 -3 -167 -52 -179 -13 -3 -59 -5
-102 -3 l-79 3 -17 70 c-9 39 -21 80 -28 91 -13 25 -78 84 -92 84 -6 0 -10 39
-10 89 0 77 2 90 18 93 15 3 18 -7 22 -77 l5 -80 125 -5z m1747 133 c-9 -9
-20 -13 -24 -9 -4 4 -1 11 7 16 25 16 35 11 17 -7z m-2167 -83 c0 -41 -4 -51
-22 -61 -42 -21 -78 -63 -89 -101 -8 -33 -14 -38 -39 -38 -33 0 -49 15 -22 22
17 5 66 121 55 132 -4 3 -19 6 -35 6 -59 0 -18 42 74 75 35 13 66 21 71 18 4
-2 7 -26 7 -53z m1283 -22 c8 -24 18 -51 22 -60 7 -17 -7 -18 -203 -18 l-210
0 -13 48 c-7 26 -15 53 -17 60 -3 9 42 12 201 12 l205 0 15 -42z m672 15 c-3
-15 -13 -42 -20 -60 l-14 -33 -181 0 -181 0 -14 33 c-7 18 -17 45 -20 60 l-7
27 222 0 222 0 -7 -27z m619 5 c-4 -13 -12 -39 -19 -58 l-12 -35 -186 -3
c-103 -1 -187 0 -187 2 0 3 9 30 21 61 l20 55 185 0 185 0 -7 -22z m-469 -18
c-3 -5 -14 -10 -23 -9 -14 0 -13 2 3 9 27 11 27 11 20 0z m-2235 -47 c-1 -29
-39 -105 -50 -98 -5 3 -10 31 -10 61 0 53 0 54 30 54 22 0 30 -5 30 -17z
m2160 8 c0 -5 -9 -11 -21 -14 -16 -4 -18 -3 -8 9 13 16 29 19 29 5z m-2030
-47 c0 -26 -8 -46 -29 -69 -16 -18 -34 -56 -41 -84 -6 -28 -16 -51 -20 -51 -5
0 -4 14 2 31 8 23 7 41 -2 69 -16 50 0 94 44 121 42 26 46 24 46 -17z m286 10
c14 -9 35 -35 48 -58 24 -41 53 -153 42 -163 -14 -14 -37 11 -61 66 -15 33
-36 68 -46 77 -12 11 -19 31 -19 56 0 43 1 44 36 22z m1043 -56 c11 -24 22
-53 26 -65 l6 -23 -238 0 -238 0 3 65 4 65 209 0 210 0 18 -42z m578 15 c-3
-16 -13 -45 -21 -65 l-16 -38 -130 0 -130 0 -16 38 c-8 20 -18 49 -21 65 l-5
27 172 0 173 0 -6 -27z m623 21 c0 -4 -5 -23 -11 -44 l-11 -37 -49 33 c-96 64
-190 54 -272 -28 -46 -46 -74 -62 -65 -35 3 6 13 36 23 65 l19 52 183 0 c101
0 183 -3 183 -6z m271 -64 l16 -60 -34 0 c-18 0 -33 4 -33 9 0 21 24 111 29
111 4 0 13 -27 22 -60z m-727 11 c-7 -7 -34 21 -28 31 3 5 12 1 19 -9 7 -10
12 -20 9 -22z m339 -2 c30 -15 77 -60 77 -73 0 -6 -12 4 -27 22 -16 18 -46 39
-68 47 -22 8 -32 14 -22 15 10 0 28 -5 40 -11z m-2515 -81 c-2 -24 -6 -42 -10
-40 -5 1 -35 2 -68 2 -66 0 -77 9 -66 55 6 24 10 25 77 25 l70 0 -3 -42z
m2082 26 c0 -8 -4 -12 -10 -9 -5 3 -10 10 -10 16 0 5 5 9 10 9 6 0 10 -7 10
-16z m1170 -24 c0 -39 -1 -40 -34 -40 -27 0 -35 5 -40 24 -3 13 -9 31 -12 40
-5 13 2 16 40 16 l46 0 0 -40z m-749 -19 c20 -20 29 -39 29 -61 0 -22 -9 -41
-29 -61 -37 -37 -79 -38 -120 -3 -25 21 -31 33 -31 65 0 84 91 120 151 60z
m-1831 -102 c0 -19 -2 -20 -16 -8 -14 11 -19 10 -34 -9 -20 -25 -42 -30 -34
-8 4 11 57 41 82 45 1 1 2 -9 2 -20z m1434 6 c-4 -8 -10 -12 -15 -9 -11 6 -2
24 11 24 5 0 7 -7 4 -15z m-1624 -20 c0 -8 -4 -15 -10 -15 -5 0 -10 7 -10 15
0 8 5 15 10 15 6 0 10 -7 10 -15z m1225 -25 c3 -5 -3 -10 -15 -10 -12 0 -18 5
-15 10 3 6 10 10 15 10 5 0 12 -4 15 -10z m-959 -38 c-9 -9 -37 8 -31 18 5 8
11 7 21 -1 8 -6 12 -14 10 -17z m-237 -28 c10 -9 -35 -3 -49 6 -11 8 -7 9 15
4 17 -4 32 -8 34 -10z m1185 -46 c8 -5 7 -8 -1 -8 -7 0 -13 -9 -13 -20 0 -11
-5 -20 -11 -20 -7 0 -9 9 -5 24 4 18 1 25 -14 29 -11 3 -20 10 -20 15 0 17 34
19 44 2 5 -8 14 -18 20 -22z m-996 -30 c3 -37 -2 -35 -12 5 -3 15 -3 27 2 27
4 0 9 -14 10 -32z m1938 -35 c-4 -4 -11 -1 -16 7 -16 25 -11 35 7 17 9 -9 13
-20 9 -24z m-1706 -19 c0 -7 -8 -10 -20 -7 -11 3 -20 8 -20 12 0 4 9 7 20 7
11 0 20 -6 20 -12z m790 -104 c13 -8 13 -10 -2 -10 -9 0 -20 5 -23 10 -8 13 5
13 25 0z m-975 -60 c3 -5 1 -10 -4 -10 -6 0 -11 5 -11 10 0 6 2 10 4 10 3 0 8
-4 11 -10z m1039 -34 c-6 -16 -24 -23 -24 -8 0 10 22 33 27 28 2 -2 1 -11 -3
-20z m691 4 c-3 -5 -11 -10 -16 -10 -6 0 -7 5 -4 10 3 6 11 10 16 10 6 0 7 -4
4 -10z m-1580 -20 c3 -5 2 -10 -4 -10 -5 0 -13 5 -16 10 -3 6 -2 10 4 10 5 0
13 -4 16 -10z m1755 -15 c0 -8 -2 -15 -4 -15 -2 0 -6 7 -10 15 -3 8 -1 15 4
15 6 0 10 -7 10 -15z m-1850 -26 c17 -13 18 -17 5 -10 -33 17 -51 31 -40 31 6
0 21 -10 35 -21z m970 -9 c0 -5 -2 -10 -4 -10 -3 0 -8 5 -11 10 -3 6 -1 10 4
10 6 0 11 -4 11 -10z m785 -9 c-3 -10 1 -24 10 -31 13 -10 15 -9 15 9 0 11 4
21 9 21 4 0 7 -10 6 -22 -1 -13 -3 -29 -4 -37 -1 -11 -5 -10 -21 4 -16 15 -22
15 -35 5 -10 -8 -15 -9 -15 -1 0 6 5 11 10 11 6 0 10 11 10 23 0 22 7 37 17
37 3 0 2 -8 -2 -19z m-1698 -23 c-3 -8 -6 -5 -6 6 -1 11 2 17 5 13 3 -3 4 -12
1 -19z"/>
<path d="M3400 3170 c0 -5 5 -10 11 -10 5 0 7 5 4 10 -3 6 -8 10 -11 10 -2 0
-4 -4 -4 -10z"/>
<path d="M111 3017 c-2 -113 1 -136 15 -148 14 -11 20 -11 46 4 16 9 33 15 37
12 5 -2 17 6 29 18 l21 22 -67 113 c-36 61 -69 112 -73 112 -4 0 -8 -60 -8
-133z"/>
<path d="M270 2870 c0 -5 5 -10 10 -10 6 0 10 5 10 10 0 6 -4 10 -10 10 -5 0
-10 -4 -10 -10z"/>
<path d="M196 2861 c-4 -6 -4 -11 0 -11 4 0 -4 -9 -17 -21 -14 -12 -31 -18
-44 -15 -17 4 -21 1 -20 -18 0 -14 3 -27 6 -30 10 -11 199 37 199 50 0 18 -27
37 -35 24 -3 -5 -11 -10 -16 -10 -6 0 -7 5 -4 10 3 6 -4 10 -17 10 -13 0 -29
5 -35 11 -8 8 -13 8 -17 0z"/>
<path d="M340 2761 c0 -5 5 -13 10 -16 6 -3 10 -2 10 4 0 5 -4 13 -10 16 -5 3
-10 2 -10 -4z"/>
<path d="M1215 930 c4 -6 11 -8 16 -5 14 9 11 15 -7 15 -8 0 -12 -5 -9 -10z"/>
<path d="M494 854 c3 -8 2 -13 -2 -10 -5 3 -9 -29 -10 -69 -2 -69 -1 -75 18
-75 17 0 20 7 20 49 0 28 -4 53 -10 56 -5 3 -10 10 -10 16 0 5 9 4 20 -3 27
-17 36 -3 16 27 -18 28 -52 35 -42 9z"/>
<path d="M618 820 c-16 -28 -28 -62 -28 -78 1 -25 2 -24 28 18 l27 45 3 -52
c3 -46 6 -53 24 -53 16 0 19 4 14 23 -3 12 -6 50 -6 85 0 52 -3 62 -17 62 -11
0 -29 -20 -45 -50z m43 -3 c-10 -9 -11 -8 -5 6 3 10 9 15 12 12 3 -3 0 -11 -7
-18z"/>
<path d="M700 797 c0 -83 8 -97 60 -97 52 0 60 14 60 97 0 58 -3 73 -15 73
-12 0 -15 -13 -15 -59 0 -39 -5 -63 -15 -71 -23 -19 -35 -2 -35 50 0 58 -7 80
-26 80 -11 0 -14 -17 -14 -73z"/>
<path d="M843 855 c0 -12 13 -15 60 -15 78 0 74 24 -5 28 -44 2 -55 0 -55 -13z"/>
<path d="M976 848 c-15 -59 0 -133 30 -145 9 -3 20 0 25 8 6 10 9 10 9 2 0
-20 38 -15 50 6 5 11 10 50 10 86 0 58 -2 66 -17 63 -14 -3 -19 -15 -21 -63
-3 -67 -13 -85 -37 -65 -10 9 -15 30 -15 71 0 44 -4 59 -14 59 -7 0 -16 -10
-20 -22z"/>
<path d="M1136 790 c-31 -95 -31 -90 -7 -90 12 0 23 11 29 28 6 15 11 21 11
15 1 -7 12 -13 26 -13 16 0 25 -6 25 -15 0 -11 12 -15 45 -15 l45 0 0 85 c0
80 -1 85 -21 85 -19 0 -21 -5 -19 -62 4 -104 0 -106 -31 -20 -27 71 -34 82
-54 82 -20 0 -27 -10 -49 -80z m64 -11 c0 -9 -7 -16 -15 -16 -17 0 -17 2 -8
35 4 18 8 20 14 10 5 -7 9 -20 9 -29z"/>
<path d="M1535 858 c-2 -7 -13 -38 -25 -68 -11 -30 -20 -63 -20 -72 0 -24 31
-23 37 0 3 14 11 18 31 14 15 -3 31 -11 35 -18 10 -18 93 -19 100 -1 4 10 6
10 6 0 1 -19 96 -17 115 3 22 21 22 117 0 138 -10 10 -32 15 -64 15 -45 -1
-49 -4 -53 -28 l-4 -26 -2 28 c-1 20 -6 27 -21 27 -18 0 -20 -7 -20 -82 0 -45
-3 -78 -7 -74 -5 4 -19 40 -33 79 -20 58 -29 73 -48 75 -12 2 -24 -3 -27 -10z
m250 -73 c0 -47 -2 -50 -27 -53 -28 -3 -28 -3 -28 53 0 56 0 56 28 53 25 -3
27 -6 27 -53z m-213 11 c3 -15 -2 -27 -14 -35 -17 -10 -18 -9 -12 16 12 49 19
55 26 19z m128 -26 c0 -5 -4 -10 -10 -10 -5 0 -10 5 -10 10 0 6 5 10 10 10 6
0 10 -4 10 -10z"/>
<path d="M1910 785 l0 -85 53 0 c29 0 58 5 65 12 16 16 16 130 0 146 -7 7 -36
12 -65 12 l-53 0 0 -85z m85 0 c0 -44 -3 -50 -22 -53 -22 -3 -23 0 -23 53 0
53 1 56 23 53 19 -3 22 -9 22 -53z"/>
<path d="M2050 785 c0 -78 2 -85 20 -85 18 0 20 7 20 85 0 78 -2 85 -20 85
-18 0 -20 -7 -20 -85z"/>
<path d="M2115 846 c-21 -31 -6 -63 33 -72 15 -3 33 -7 40 -10 14 -4 16 -34 2
-34 -5 0 -10 -7 -10 -15 0 -19 10 -19 38 0 33 24 14 85 -27 85 -10 0 -26 6
-37 14 -18 14 -18 15 -1 22 10 3 29 1 42 -6 34 -18 49 -10 30 18 -23 32 -89
31 -110 -2z"/>
<path d="M2254 861 c3 -5 0 -12 -6 -14 -7 -3 18 -6 55 -6 51 -1 68 2 65 12 -3
7 -27 13 -62 15 -36 2 -56 -1 -52 -7z"/>
<path d="M2384 788 c2 -46 5 -84 5 -85 1 -2 9 -3 19 -3 13 0 14 2 3 9 -9 6
-10 11 -2 15 6 4 11 37 11 77 0 63 -2 69 -21 69 -19 0 -20 -4 -15 -82z"/>
<path d="M2430 855 c0 -9 10 -15 26 -15 21 0 25 -4 22 -22 -2 -15 -11 -24 -25
-26 -35 -5 -28 -30 10 -34 28 -3 32 -6 29 -29 -1 -17 3 -26 13 -26 18 0 18 2
5 47 -6 22 -6 38 0 44 17 17 11 55 -9 66 -30 15 -71 13 -71 -5z"/>
<path d="M2530 785 l0 -85 60 0 c55 0 61 2 72 26 9 20 9 30 0 45 -9 14 -9 25
-2 39 13 24 13 26 -6 44 -10 11 -34 16 -70 16 l-54 0 0 -85z m95 35 c0 -9 -11
-16 -27 -18 -23 -3 -28 1 -28 18 0 17 5 21 28 18 16 -2 27 -9 27 -18z m-14
-50 c33 0 24 -37 -10 -42 -26 -4 -30 -1 -33 24 -4 22 -1 28 9 23 8 -3 23 -5
34 -5z"/>
<path d="M2681 809 c-1 -42 3 -68 14 -85 19 -29 45 -31 45 -4 0 11 -4 20 -10
20 -6 0 -10 28 -10 65 0 56 -2 65 -18 65 -16 0 -19 -9 -21 -61z"/>
<path d="M2770 805 c0 -37 -4 -65 -10 -65 -5 0 -10 -9 -10 -20 0 -25 22 -26
43 -2 12 13 17 37 17 85 0 60 -2 67 -20 67 -18 0 -20 -7 -20 -65z"/>
<path d="M2834 861 c3 -5 0 -12 -6 -14 -7 -3 18 -6 55 -6 51 -1 68 2 65 12 -3
7 -27 13 -62 15 -36 2 -56 -1 -52 -7z"/>
<path d="M2960 785 c0 -78 2 -85 20 -85 18 0 20 7 20 85 0 78 -2 85 -20 85
-18 0 -20 -7 -20 -85z"/>
<path d="M3032 847 c-31 -33 -30 -96 1 -125 40 -37 67 -20 31 19 -23 25 -21
67 4 91 l20 21 27 -27 c29 -29 27 -52 -7 -96 -19 -24 -19 -25 -2 -29 27 -5 64
44 64 85 0 73 -90 113 -138 61z"/>
<path d="M3180 785 c0 -78 2 -85 20 -85 17 0 20 7 20 44 0 25 -6 51 -12 58 -7
7 -14 20 -16 28 -3 10 2 9 17 -4 26 -24 38 -14 23 19 -7 15 -20 25 -32 25 -18
0 -20 -6 -20 -85z"/>
<path d="M3280 824 c0 -25 5 -54 10 -65 18 -33 3 -21 -19 16 -13 23 -25 33
-35 29 -22 -9 38 -104 66 -104 18 0 19 2 7 17 -10 11 -10 14 -1 9 9 -5 12 11
12 68 0 69 -2 76 -20 76 -17 0 -20 -7 -20 -46z"/>
<path d="M881 765 c0 -58 2 -65 19 -65 18 0 20 7 20 65 0 57 -2 65 -19 65 -17
0 -19 -8 -20 -65z"/>
<path d="M2290 765 c0 -57 2 -65 19 -65 17 0 19 8 20 65 0 58 -2 65 -19 65
-18 0 -20 -7 -20 -65z"/>
<path d="M2870 766 c0 -59 2 -66 19 -66 18 0 20 7 18 62 -2 51 -5 63 -19 66
-16 3 -18 -5 -18 -62z"/>
<path d="M542 801 c-10 -6 -9 -16 8 -44 12 -21 24 -37 26 -37 2 0 4 13 4 28 0
36 -20 64 -38 53z"/>
<path d="M2113 753 c-17 -6 -16 -18 3 -37 18 -19 54 -21 54 -3 -1 16 -42 45
-57 40z"/>
<path d="M1320 715 c0 -11 11 -15 40 -15 29 0 40 4 40 15 0 11 -11 15 -40 15
-29 0 -40 -4 -40 -15z"/>
<path d="M1080 508 c0 -80 2 -89 18 -86 11 2 18 14 20 36 3 27 7 33 25 30 14
-2 23 -13 29 -33 6 -26 12 -30 48 -33 l40 -2 0 90 c0 76 -3 90 -16 90 -9 0
-18 -9 -21 -19 -5 -19 -5 -19 -23 -1 -14 14 -32 19 -69 18 l-51 -1 0 -89z m93
43 c13 -13 1 -28 -28 -33 -22 -5 -25 -2 -25 23 0 23 4 27 22 24 12 -3 26 -9
31 -14z m50 -63 c3 -27 1 -48 -4 -48 -5 0 -9 11 -9 24 0 14 -4 28 -10 31 -6 4
-5 13 2 25 7 11 13 18 14 17 1 -1 4 -23 7 -49z"/>
<path d="M1298 570 c-26 -27 -30 -36 -25 -67 8 -45 38 -78 63 -69 16 6 15 8
-5 29 -26 29 -27 68 -1 92 22 19 27 45 9 45 -6 0 -24 -14 -41 -30z"/>
<path d="M1360 585 c0 -22 37 -55 55 -49 22 9 19 20 -11 43 -32 25 -44 26 -44
6z"/>
<path d="M1441 513 c-1 -57 1 -83 8 -78 6 3 11 1 11 -5 0 -6 4 -9 9 -6 4 3 8
42 7 87 -1 67 -4 83 -17 84 -14 2 -17 -10 -18 -82z"/>
<path d="M1556 591 c-3 -4 -3 -45 1 -90 4 -58 10 -81 19 -81 11 0 14 21 14 90
0 72 -3 90 -14 90 -8 0 -17 -4 -20 -9z"/>
<path d="M1610 510 c0 -73 3 -90 15 -90 11 0 15 13 15 54 0 30 -4 58 -10 61
-5 3 -10 10 -10 16 0 5 9 4 20 -3 10 -7 22 -9 26 -5 10 10 -24 57 -41 57 -12
0 -15 -17 -15 -90z"/>
<path d="M1740 545 c-18 -31 -30 -65 -28 -77 4 -21 6 -19 28 17 l25 40 3 -52
c3 -45 6 -53 23 -53 19 0 20 6 18 90 -1 79 -4 90 -20 90 -11 0 -29 -20 -49
-55z"/>
<path d="M1865 588 c-44 -25 -54 -59 -34 -116 11 -31 40 -49 60 -37 7 5 3 14
-10 26 -27 25 -27 67 1 96 l21 23 28 -31 c27 -30 27 -33 14 -60 -8 -15 -19
-31 -25 -34 -5 -3 -10 -12 -10 -20 0 -23 41 -4 61 29 l19 31 0 -37 c0 -31 4
-38 20 -38 17 0 20 7 20 43 0 24 -7 58 -16 75 -17 36 -29 42 -21 12 3 -11 1
-23 -4 -26 -5 -3 -9 1 -9 9 0 43 -74 78 -115 55z"/>
<path d="M2000 583 c6 -10 28 -47 49 -83 37 -63 64 -90 76 -78 4 3 -1 19 -10
35 -14 23 -14 25 -1 9 15 -19 16 -15 16 57 0 71 -2 77 -21 77 -19 0 -21 -5
-17 -56 3 -50 2 -53 -11 -35 -7 12 -21 21 -30 22 -10 0 -11 2 -4 6 20 8 -13
63 -38 63 -16 0 -18 -3 -9 -17z"/>
<path d="M2144 586 c-2 -6 -3 -45 -1 -86 l2 -75 54 1 c65 0 81 17 81 86 0 65
-23 88 -85 86 -26 0 -48 -6 -51 -12z m70 -26 c22 -8 26 -16 26 -48 0 -41 -14
-62 -42 -62 -15 0 -18 9 -18 60 0 33 2 60 4 60 3 0 16 -4 30 -10z"/>
<path d="M2410 596 c0 -3 15 -45 33 -93 31 -86 32 -87 35 -48 5 55 -27 145
-50 145 -10 0 -18 -2 -18 -4z"/>
<path d="M2511 541 c-22 -60 -27 -106 -13 -115 4 -2 22 36 40 85 28 81 30 89
13 89 -13 0 -24 -16 -40 -59z"/>
<path d="M2616 568 c-23 -55 -45 -136 -39 -142 14 -13 33 -5 38 17 5 19 12 23
35 19 17 -2 30 -11 33 -23 4 -16 47 -29 47 -15 0 3 -14 43 -31 90 -24 68 -35
86 -50 86 -13 0 -25 -11 -33 -32z m44 -58 c0 -10 -7 -20 -15 -24 -16 -6 -18
-2 -9 31 7 26 24 21 24 -7z"/>
<path d="M1487 523 c-15 -14 -6 -23 23 -23 20 0 30 5 30 15 0 15 -40 21 -53 8z"/>
<path d="M1650 524 c0 -3 11 -22 25 -42 24 -36 25 -36 25 -10 0 39 -10 58 -31
58 -10 0 -19 -2 -19 -6z"/>
<path d="M1377 462 c-18 -19 -23 -42 -9 -42 16 0 52 32 52 46 0 20 -24 18 -43
-4z"/>
<path d="M2290 421 c0 -28 4 -41 13 -41 21 0 25 8 18 42 -10 48 -31 48 -31 -1z"/>
</g>
</svg>
